<svg width="19" height="19" viewBox="0 0 19 19" fill="none" xmlns="http://www.w3.org/2000/svg">
<path d="M18.5669 15.3248L18.9209 17.7998C18.9428 17.9534 18.9286 18.11 18.8795 18.2572C18.8304 18.4044 18.7477 18.5381 18.638 18.6479C18.5283 18.7576 18.3945 18.8403 18.2473 18.8894C18.1001 18.9385 17.9435 18.9526 17.7899 18.9308L15.3149 18.5768C14.9399 18.5238 13.9999 15.9998 13.9999 15.9998C13.9999 15.9998 13.5279 16.4048 13.3349 16.4658C12.9229 16.5958 12.5219 16.1918 12.3869 15.7818L11.9999 14.0098C11.9999 14.0098 11.4229 14.3018 11.2139 14.3448C10.9479 14.3998 10.6899 14.2358 10.5069 14.0518C10.397 13.9422 10.3144 13.8082 10.2659 13.6608L9.99992 12.0098C9.99992 12.0098 9.32492 12.1968 9.09392 12.2238C8.83092 12.2538 8.57492 12.1198 8.38692 11.9308L7.24892 10.7938C6.28562 11.1059 5.25485 11.1462 4.27014 10.9101C3.28543 10.674 2.38497 10.1708 1.66792 9.45576C0.638233 8.42341 0.059988 7.02484 0.059988 5.56676C0.059988 4.10868 0.638233 2.71011 1.66792 1.67776C2.70027 0.648072 4.09884 0.0698242 5.55692 0.0698242C7.015 0.0698242 8.41357 0.648072 9.44592 1.67776C10.1611 2.39468 10.6645 3.29514 10.9006 4.2799C11.1367 5.26466 11.0963 6.29548 10.7839 7.25876L18.2849 14.7588C18.438 14.9117 18.537 15.1104 18.5669 15.3248ZM3.49592 3.50576C2.95036 4.05293 2.644 4.79408 2.644 5.56676C2.644 6.33943 2.95036 7.08059 3.49592 7.62776L7.61792 3.50576C7.07075 2.9602 6.32959 2.65384 5.55692 2.65384C4.78424 2.65384 4.04309 2.9602 3.49592 3.50576Z" fill="#0F0F0F"/>
</svg>
