<svg width="24" height="24" viewBox="0 0 24 24" fill="none" xmlns="http://www.w3.org/2000/svg">
<path d="M20.5669 17.3248L20.9209 19.7998C20.9428 19.9534 20.9286 20.11 20.8795 20.2572C20.8304 20.4044 20.7477 20.5381 20.638 20.6479C20.5283 20.7576 20.3945 20.8403 20.2473 20.8894C20.1001 20.9385 19.9435 20.9526 19.7899 20.9308L17.3149 20.5768C16.9399 20.5238 15.9999 17.9998 15.9999 17.9998C15.9999 17.9998 15.5279 18.4048 15.3349 18.4658C14.9229 18.5958 14.5219 18.1918 14.3869 17.7818L13.9999 16.0098C13.9999 16.0098 13.4229 16.3018 13.2139 16.3448C12.9479 16.3998 12.6899 16.2358 12.5069 16.0518C12.397 15.9422 12.3144 15.8082 12.2659 15.6608L11.9999 14.0098C11.9999 14.0098 11.3249 14.1968 11.0939 14.2238C10.8309 14.2538 10.5749 14.1198 10.3869 13.9308L9.24892 12.7938C8.28562 13.1059 7.25485 13.1462 6.27014 12.9101C5.28543 12.674 4.38497 12.1708 3.66792 11.4558C2.63823 10.4234 2.05999 9.02484 2.05999 7.56676C2.05999 6.10868 2.63823 4.71011 3.66792 3.67776C4.70027 2.64807 6.09884 2.06982 7.55692 2.06982C9.015 2.06982 10.4136 2.64807 11.4459 3.67776C12.1611 4.39468 12.6645 5.29514 12.9006 6.2799C13.1367 7.26466 13.0963 8.29548 12.7839 9.25876L20.2849 16.7588C20.438 16.9117 20.537 17.1104 20.5669 17.3248ZM5.49592 5.50576C4.95036 6.05293 4.644 6.79408 4.644 7.56676C4.644 8.33943 4.95036 9.08059 5.49592 9.62776L9.61792 5.50576C9.07075 4.9602 8.32959 4.65384 7.55692 4.65384C6.78424 4.65384 6.04309 4.9602 5.49592 5.50576Z" fill="#0F0F0F"/>
</svg>
